<?xml version="1.0" standalone="no"?>
<!DOCTYPE svg PUBLIC "-//W3C//DTD SVG 20010904//EN"
 "http://www.w3.org/TR/2001/REC-SVG-20010904/DTD/svg10.dtd">
<svg version="1.0" xmlns="http://www.w3.org/2000/svg"
 width="1280.000000pt" height="1019.000000pt" viewBox="0 0 1280.000000 1019.000000"
 preserveAspectRatio="xMidYMid meet">
<metadata>
Created by potrace 1.15, written by Peter Selinger 2001-2017
</metadata>
<g transform="translate(0.000000,1019.000000) scale(0.100000,-0.100000)"
fill="#000000" stroke="none">
<path d="M7535 10043 c-11 -3 -26 -10 -33 -16 -100 -81 -363 -1132 -413 -1647
-21 -222 3 -422 68 -558 31 -67 128 -196 184 -247 88 -79 237 -128 394 -128
114 0 177 19 257 78 96 71 242 272 308 425 84 193 149 451 171 675 11 105 10
130 -5 205 -32 154 -95 269 -206 374 -77 72 -116 96 -205 121 -80 24 -161 16
-237 -23 -32 -17 -58 -26 -58 -20 0 6 37 132 81 280 45 149 82 282 82 295 0
36 -32 73 -94 111 -85 52 -236 90 -294 75z m445 -1184 c0 -230 -95 -657 -182
-821 -56 -104 -131 -163 -178 -138 -39 21 -53 68 -52 169 2 109 19 221 35 221
6 0 8 3 4 6 -3 4 8 16 25 28 27 18 35 33 50 96 30 124 87 282 137 375 38 73
53 92 87 110 68 36 74 32 74 -46z"/>
<path d="M1787 9978 c-299 -172 -634 -591 -936 -1169 l-81 -156 -62 -17 c-153
-42 -188 -73 -188 -161 0 -52 29 -142 58 -182 l20 -28 -44 -125 c-83 -234
-154 -514 -154 -604 0 -38 5 -50 34 -78 18 -18 38 -43 45 -56 25 -47 248 -130
315 -117 31 6 110 80 119 112 3 10 13 56 22 103 39 204 177 686 203 712 10 10
242 44 378 55 l101 8 7 -74 c11 -128 8 -151 -16 -171 -21 -17 -23 -26 -22
-102 2 -85 24 -189 51 -243 29 -55 106 -136 153 -160 127 -64 275 -83 295 -37
5 12 15 22 21 22 20 0 55 48 55 76 1 16 -6 112 -15 214 -35 404 -31 1008 10
1420 16 161 55 437 79 550 17 82 9 101 -63 151 -70 49 -159 79 -252 85 -71 5
-78 3 -133 -28z m-106 -896 c-12 -97 -25 -207 -29 -244 l-7 -68 -132 -5 c-73
-3 -133 -2 -133 2 0 38 310 528 318 504 2 -7 -5 -92 -17 -189z"/>
<path d="M5542 9980 c-317 -27 -610 -160 -795 -360 -123 -133 -141 -184 -89
-256 16 -21 36 -45 45 -53 9 -7 15 -17 12 -21 -7 -11 57 -66 105 -90 56 -28
97 -25 156 11 51 32 104 78 104 90 0 4 18 25 40 47 27 26 40 49 40 66 0 15 4
25 9 22 5 -3 15 1 22 10 7 9 31 28 54 44 l40 28 -33 -132 c-66 -262 -189 -916
-268 -1416 -15 -96 -30 -179 -34 -183 -4 -5 -33 -1 -64 9 -78 25 -101 15 -140
-61 -26 -50 -31 -71 -31 -131 0 -62 3 -75 30 -113 17 -23 39 -55 50 -71 11
-16 47 -44 80 -61 33 -18 80 -47 105 -64 58 -41 136 -73 217 -90 81 -17 104
-9 159 52 l41 45 119 9 c283 22 514 92 698 212 83 55 201 156 192 165 -3 2 14
26 37 53 94 107 149 231 168 376 30 225 -72 432 -284 581 l-79 55 71 65 c40
35 70 67 67 70 -3 2 13 25 35 51 120 136 173 308 144 473 -42 243 -239 438
-526 521 -148 43 -334 61 -497 47z m263 -381 c72 -13 168 -57 212 -97 49 -46
65 -132 42 -231 -34 -148 -153 -271 -337 -350 -30 -12 -55 -21 -57 -19 -5 4
71 412 95 516 11 46 20 92 20 102 0 23 -32 55 -80 80 l-35 19 40 -5 c22 -3 67
-10 100 -15z m-4 -1123 c67 -15 149 -51 200 -89 48 -35 64 -101 50 -200 -26
-182 -162 -335 -363 -411 -62 -23 -209 -59 -216 -52 -4 5 109 717 119 744 8
20 15 22 76 22 38 0 98 -7 134 -14z"/>
<path d="M9812 9950 c-313 -82 -602 -426 -762 -907 -185 -560 -150 -1009 106
-1346 85 -112 157 -176 255 -227 280 -146 614 -107 815 94 151 152 258 331
311 521 24 86 28 119 28 235 0 117 -3 141 -21 180 -24 50 -63 94 -109 118 -57
32 -249 16 -288 -22 -8 -8 -24 -66 -36 -130 -56 -299 -174 -516 -316 -582
-107 -50 -220 -24 -276 64 -46 73 -60 133 -66 282 -13 350 115 796 322 1117
84 130 174 203 252 203 38 0 43 -3 43 -22 -1 -82 -78 -277 -161 -404 -21 -33
-39 -69 -39 -80 0 -31 70 -143 125 -199 61 -62 118 -83 183 -66 44 12 139 81
150 109 3 9 27 43 53 76 127 157 190 401 149 576 -18 80 -75 182 -134 244
-154 160 -371 222 -584 166z"/>
<path d="M3360 9376 c-212 -55 -376 -207 -496 -460 -157 -332 -198 -768 -99
-1033 27 -71 91 -178 127 -209 11 -11 24 -29 29 -41 12 -31 118 -108 184 -132
180 -67 334 -42 482 79 74 61 107 68 146 32 15 -14 27 -31 27 -38 0 -17 57
-64 98 -81 148 -62 321 -19 437 110 121 133 195 282 210 421 12 110 -27 189
-110 227 -50 23 -157 26 -175 4 -7 -8 -21 -65 -31 -127 -18 -108 -53 -202 -83
-227 -7 -6 -27 -14 -44 -17 -30 -6 -33 -4 -48 32 -14 32 -16 62 -10 174 9 209
45 411 127 713 24 90 38 160 34 174 -9 39 -52 71 -111 84 -44 10 -54 16 -54
33 0 38 -46 120 -88 158 -51 46 -138 91 -218 113 -84 22 -265 28 -334 11z
m145 -500 c-9 -28 -30 -72 -46 -99 -40 -65 -38 -98 7 -135 39 -32 64 -73 64
-104 0 -33 -47 -208 -90 -332 -63 -184 -135 -316 -171 -316 -27 0 -32 50 -26
219 9 243 82 577 166 755 30 66 44 85 72 99 l34 16 3 -26 c2 -14 -4 -48 -13
-77z"/>
<path d="M11631 9284 c-116 -31 -221 -99 -304 -196 -185 -217 -307 -603 -294
-928 9 -195 62 -349 166 -478 28 -34 51 -66 51 -72 0 -19 136 -121 205 -155
105 -52 182 -69 315 -69 244 0 408 84 566 292 183 242 228 500 107 624 -51 52
-118 72 -193 58 -67 -13 -98 -32 -105 -68 -19 -90 -32 -127 -75 -217 -60 -125
-127 -202 -212 -244 -115 -58 -205 -34 -254 65 -25 52 -28 69 -32 194 -8 262
39 520 131 707 24 50 39 69 69 84 l38 19 0 -23 c0 -40 -31 -129 -71 -206 -28
-53 -37 -81 -33 -100 14 -63 28 -96 58 -130 17 -20 36 -45 42 -55 30 -55 143
-73 220 -35 43 20 69 47 133 133 108 147 142 409 71 552 -95 193 -374 309
-599 248z"/>
<path d="M11339 6744 c-15 -3 -34 -13 -43 -22 -10 -12 -42 -159 -91 -417 -42
-220 -79 -403 -83 -406 -4 -4 -56 -16 -117 -28 -60 -12 -120 -29 -133 -37 -82
-53 -36 -248 93 -391 40 -45 55 -69 55 -91 0 -16 -25 -148 -56 -293 -154 -732
-181 -1081 -94 -1248 33 -64 114 -154 159 -178 57 -30 149 -31 223 -3 188 71
449 393 552 680 67 186 95 400 77 587 -20 214 -66 353 -167 504 -25 39 -45 71
-43 73 5 3 125 18 407 51 139 16 210 28 227 39 14 9 23 21 21 25 -3 4 6 14 19
21 14 7 32 25 41 38 39 60 -15 232 -100 317 -72 72 -111 74 -444 19 -89 -15
-165 -24 -168 -21 -4 3 14 91 40 194 80 330 82 423 10 503 -53 58 -124 82
-254 85 -58 2 -117 1 -131 -1z m171 -1823 c18 -121 7 -400 -19 -513 -24 -105
-70 -219 -119 -294 l-37 -55 -3 35 c-5 60 87 711 129 916 l12 55 13 -30 c7
-16 18 -68 24 -114z"/>
<path d="M4310 6724 c-62 -21 -100 -71 -119 -156 -6 -26 -29 -172 -51 -325
-23 -153 -43 -286 -46 -295 -5 -16 -8 -16 -33 -4 -44 23 -145 46 -202 46 -326
-1 -594 -323 -704 -844 -84 -395 -44 -666 132 -901 99 -134 173 -184 301 -204
148 -24 243 25 379 196 21 27 42 42 61 45 26 4 35 -3 75 -53 55 -68 114 -99
201 -106 66 -6 148 12 216 47 50 25 146 105 162 134 7 13 34 50 61 82 93 116
155 283 144 393 -11 107 -79 165 -195 166 -77 0 -83 -7 -101 -102 -29 -166
-95 -303 -146 -303 -19 0 -26 7 -32 28 -16 64 40 446 201 1382 47 272 88 518
92 546 11 88 -31 143 -141 186 -66 26 -225 52 -255 42z m-414 -1288 c-20 -57
-36 -115 -36 -129 0 -16 14 -41 35 -63 35 -37 36 -39 26 -83 -49 -226 -270
-701 -313 -675 -16 10 -3 266 22 413 37 224 93 415 164 566 41 88 68 118 111
127 33 6 30 -41 -9 -156z"/>
<path d="M1589 6630 c-42 -12 -76 -39 -89 -70 -9 -23 -20 -31 -49 -35 -333
-53 -539 -194 -671 -460 -42 -85 -80 -210 -80 -261 0 -31 28 -77 62 -102 10
-7 18 -19 18 -27 0 -24 56 -55 136 -75 95 -25 129 -25 146 -2 7 9 25 25 40 35
18 11 31 31 38 59 43 169 98 277 168 328 41 29 42 30 37 8 -161 -732 -196
-906 -256 -1255 -21 -128 -39 -246 -39 -263 0 -21 8 -36 29 -51 16 -12 39 -35
52 -53 l23 -31 -42 33 c-46 37 -69 66 -100 128 -19 37 -19 42 -5 56 23 24 18
82 -12 134 -41 70 -161 191 -202 205 -83 27 -225 -25 -320 -117 -60 -59 -63
-74 -38 -183 28 -118 135 -290 256 -410 241 -239 638 -364 970 -306 269 47
460 169 656 417 175 222 268 441 324 765 30 170 33 457 7 579 -64 293 -206
513 -430 665 -52 36 -185 103 -240 122 -12 4 -18 17 -18 36 0 37 -20 58 -86
88 -93 42 -223 62 -285 43z m385 -606 c107 -73 156 -214 156 -455 0 -469 -146
-878 -393 -1105 -70 -64 -169 -121 -227 -129 -19 -3 -29 -3 -22 1 6 3 10 10 7
14 -3 5 3 14 14 19 46 25 59 70 111 382 64 386 139 806 191 1069 55 278 47
253 80 246 15 -3 52 -22 83 -42z"/>
<path d="M5726 6603 c-14 -21 -41 -74 -61 -118 l-36 -80 -127 -33 c-192 -49
-292 -82 -313 -103 -40 -40 -12 -144 62 -236 19 -24 44 -56 56 -72 30 -38 87
-64 129 -59 26 3 34 0 34 -12 0 -8 -17 -96 -38 -194 l-39 -180 -59 -19 c-163
-52 -194 -75 -194 -144 0 -37 40 -121 79 -165 17 -20 31 -40 31 -46 0 -11 42
-48 62 -54 7 -3 2 -76 -16 -233 -39 -338 -29 -306 -106 -326 -90 -23 -97 -27
-110 -60 -22 -52 5 -134 72 -217 18 -22 41 -52 51 -66 23 -33 64 -54 147 -77
36 -10 103 -29 149 -43 46 -14 96 -26 111 -26 42 0 127 83 135 132 4 21 10 36
14 34 4 -3 37 2 74 10 219 46 582 98 793 113 145 11 161 15 169 40 3 10 16 24
30 31 56 30 58 119 6 225 -46 93 -103 161 -147 175 -70 23 -360 -10 -699 -81
-104 -21 -193 -39 -197 -39 -8 0 -7 14 22 270 11 96 24 178 29 183 13 13 165
34 336 47 183 14 207 19 220 48 5 12 17 25 27 27 28 10 52 57 52 107 0 37 -8
58 -37 101 -50 76 -94 125 -131 145 -34 19 -175 22 -313 8 -65 -6 -73 -5 -73
10 0 24 58 281 76 335 l15 47 112 17 c62 10 143 20 181 24 l69 6 53 -52 c62
-61 83 -65 166 -33 64 25 225 142 237 173 5 12 25 38 45 56 49 47 48 83 -5
192 -47 98 -60 114 -114 142 -72 37 -199 35 -498 -9 l-98 -14 -30 29 c-33 33
-116 64 -233 86 -124 24 -142 21 -170 -22z"/>
<path d="M9480 6610 c-8 -5 -33 -46 -55 -91 l-40 -83 -160 -32 c-88 -18 -227
-50 -310 -70 -125 -31 -155 -42 -179 -66 -26 -26 -28 -34 -23 -78 8 -67 49
-147 118 -229 78 -93 95 -99 222 -77 56 10 117 21 135 26 23 6 32 5 32 -4 0
-15 -100 -458 -106 -467 -2 -3 -18 -9 -36 -13 -85 -17 -202 -59 -224 -81 -29
-29 -32 -81 -9 -145 17 -48 102 -167 146 -204 18 -15 29 -34 29 -50 0 -13 -18
-132 -39 -263 -21 -131 -49 -310 -62 -397 l-23 -159 40 -36 c23 -20 44 -44 47
-54 12 -34 207 -107 286 -107 23 0 42 11 75 44 24 25 47 53 50 63 3 10 17 110
31 223 32 254 92 648 108 714 10 43 16 51 42 57 48 12 397 49 553 58 104 7
149 14 168 25 13 10 22 21 19 26 -3 5 4 12 16 15 29 10 59 64 59 109 0 24 -13
62 -35 105 -51 97 -89 139 -137 152 -22 6 -54 20 -70 32 -27 20 -41 22 -161
20 -73 0 -179 -8 -237 -16 -58 -8 -106 -13 -108 -12 -3 3 72 331 91 395 10 35
18 45 42 52 49 13 441 47 703 62 l244 13 53 57 c29 32 55 70 58 86 13 60 -31
137 -141 252 -90 94 -121 103 -311 94 -81 -4 -234 -17 -340 -30 l-195 -22 -61
33 c-59 31 -228 83 -270 83 -11 0 -27 -5 -35 -10z"/>
<path d="M7683 6045 c-131 -40 -268 -186 -373 -395 -126 -251 -214 -602 -227
-905 -10 -233 32 -374 160 -538 107 -137 186 -195 322 -237 152 -46 307 -34
454 35 173 83 364 346 414 570 35 158 30 235 -19 306 -40 58 -96 84 -182 84
-71 0 -75 -1 -103 -33 -16 -18 -29 -44 -29 -58 0 -14 -12 -60 -26 -102 -74
-222 -241 -392 -386 -392 -93 0 -134 44 -144 152 -7 66 10 236 24 250 4 4 37
-6 72 -24 80 -39 141 -46 207 -24 47 15 153 97 153 117 0 6 18 31 39 57 116
140 191 384 194 631 1 116 -12 188 -50 268 -30 65 -111 155 -170 190 -99 58
-235 78 -330 48z m104 -532 c-11 -147 -61 -314 -112 -378 -26 -33 -35 -1 -18
69 28 123 119 396 131 396 3 0 2 -39 -1 -87z"/>
<path d="M7363 3366 c-62 -28 -106 -145 -162 -431 -76 -386 -169 -1149 -202
-1652 -16 -234 -10 -263 72 -374 84 -113 182 -169 296 -169 50 0 113 23 113
41 0 7 16 26 35 43 33 29 36 37 46 116 19 157 83 409 148 580 l21 55 -6 -48
c-3 -27 -5 -103 -5 -170 0 -204 44 -327 164 -468 87 -101 145 -131 267 -137
103 -5 183 13 285 63 67 33 185 126 185 147 0 5 18 30 39 56 46 56 79 119 97
187 42 156 -21 268 -159 282 -96 10 -102 5 -132 -94 -34 -112 -68 -178 -113
-225 -42 -45 -73 -48 -101 -12 -28 36 -35 116 -21 251 15 152 34 255 114 614
74 334 81 376 72 423 -19 98 -230 206 -412 210 -52 1 -66 -3 -96 -26 -73 -55
-162 -207 -274 -466 -35 -81 -64 -139 -64 -130 0 34 91 554 114 653 13 55 40
162 59 237 42 157 55 280 35 318 -21 39 -89 84 -164 109 -87 29 -207 37 -251
17z"/>
<path d="M11558 3350 c-110 -33 -197 -152 -234 -318 -21 -92 -15 -191 14 -248
27 -52 107 -150 135 -165 86 -47 230 -21 335 59 19 14 38 35 43 46 5 12 27 44
49 71 106 132 101 326 -9 391 -22 13 -32 28 -36 56 -9 51 -47 95 -93 108 -43
12 -165 12 -204 0z"/>
<path d="M6260 3318 c-68 -35 -92 -90 -159 -360 -32 -128 -78 -334 -102 -458
l-44 -225 -110 0 c-60 -1 -174 -9 -252 -19 -78 -10 -146 -17 -151 -15 -9 4 54
283 98 434 17 58 31 86 51 103 39 32 59 104 66 239 7 126 4 132 -58 164 -63
32 -210 70 -295 76 -73 5 -83 4 -102 -15 -45 -45 -162 -454 -285 -997 l-23
-100 -84 -17 c-302 -62 -320 -71 -320 -152 0 -56 31 -142 70 -192 17 -22 41
-56 55 -77 37 -55 80 -78 138 -75 26 2 47 2 47 0 0 -2 -11 -83 -25 -180 -33
-236 -53 -422 -61 -567 l-6 -120 42 -45 c23 -25 51 -55 61 -67 24 -26 171 -81
243 -89 55 -7 96 6 96 29 0 7 13 21 30 30 36 22 50 66 50 167 0 190 82 885
110 929 11 19 512 93 527 77 3 -3 -7 -105 -23 -228 l-30 -222 -29 -16 c-17 -9
-36 -29 -43 -44 -45 -92 -7 -325 66 -404 15 -17 32 -38 38 -48 26 -45 228
-124 315 -124 27 0 43 10 83 50 43 43 49 55 52 97 26 351 50 551 115 938 53
314 163 869 234 1170 43 185 54 245 46 262 -13 29 -69 57 -176 88 -112 32
-195 33 -255 3z"/>
<path d="M1423 3240 c-127 -33 -238 -102 -355 -221 -260 -265 -462 -754 -509
-1233 -14 -141 -1 -297 36 -443 37 -145 75 -220 203 -396 84 -116 215 -202
378 -249 64 -18 104 -22 214 -22 156 -1 220 13 345 74 79 39 205 136 228 177
7 11 31 44 55 73 148 181 213 412 168 589 -9 34 -16 66 -16 70 0 5 33 9 73 10
74 2 137 16 137 31 0 5 16 24 36 42 39 38 55 87 43 133 -12 42 -108 165 -157
199 -36 26 -53 30 -125 34 -94 5 -305 -19 -412 -47 -55 -14 -95 -17 -177 -13
-181 8 -299 -36 -328 -123 -21 -63 32 -188 130 -305 55 -66 85 -77 172 -62
107 19 126 17 134 -14 11 -45 -4 -154 -30 -210 -35 -76 -104 -146 -179 -180
-54 -25 -74 -29 -153 -29 -80 0 -95 3 -128 25 -172 116 -194 516 -51 960 139
430 352 737 505 728 l40 -2 0 -43 c0 -49 -31 -150 -63 -203 -11 -19 -44 -64
-72 -100 -61 -76 -69 -97 -55 -135 11 -29 72 -113 112 -154 65 -66 184 -89
265 -50 79 38 202 203 242 325 80 241 38 451 -122 608 -41 41 -99 86 -134 104
-133 70 -306 90 -450 52z"/>
<path d="M10110 3245 c-309 -32 -606 -85 -845 -150 -162 -45 -177 -52 -191
-95 -21 -63 26 -192 97 -268 16 -17 27 -32 23 -32 -13 0 30 -42 58 -56 39 -20
94 -17 256 15 78 15 142 26 142 23 0 -2 -25 -110 -55 -240 -100 -432 -222
-1087 -212 -1139 3 -19 -1 -24 -22 -29 -14 -3 -50 -12 -79 -19 -48 -12 -57
-12 -99 7 -40 18 -51 19 -86 8 -51 -15 -215 -118 -229 -144 -15 -28 -5 -106
21 -158 12 -25 48 -77 79 -114 82 -98 76 -97 389 -41 491 89 862 137 1066 137
l68 0 54 54 c52 51 55 57 55 103 -1 59 -32 138 -89 221 -60 89 -85 102 -196
102 -83 0 -311 -22 -379 -36 l-29 -6 8 48 c30 207 154 857 213 1119 50 220 47
213 90 224 88 22 148 23 210 2 82 -28 118 -26 177 8 53 31 59 36 130 119 52
61 55 83 21 150 -47 92 -81 128 -153 164 -66 32 -70 33 -213 35 -80 1 -206 -5
-280 -12z"/>
<path d="M3403 2641 c-322 -82 -539 -381 -608 -839 -18 -115 -19 -299 -4 -409
15 -109 62 -248 105 -313 118 -176 208 -242 359 -263 81 -11 131 -1 189 38
l37 25 -6 -22 c-3 -13 -29 -69 -56 -126 -37 -75 -66 -118 -109 -162 -32 -33
-62 -60 -67 -60 -18 0 -148 116 -185 165 -44 58 -77 70 -155 54 -118 -23 -199
-117 -197 -228 0 -32 8 -70 18 -89 27 -52 104 -150 140 -177 48 -36 152 -82
237 -104 161 -41 295 -37 403 12 58 27 176 121 176 141 0 7 11 23 25 36 37 34
117 155 157 235 125 248 230 684 322 1324 43 299 45 316 29 348 -17 36 -50 58
-117 77 -37 11 -41 15 -48 55 -30 176 -203 287 -463 297 -85 3 -126 0 -182
-15z m217 -443 c-1 -29 -8 -89 -16 -133 -29 -146 -29 -139 7 -179 l32 -37 -12
-82 c-37 -238 -190 -556 -263 -545 -57 8 -87 121 -74 276 21 238 83 486 161
642 35 70 85 109 138 110 26 0 27 -2 27 -52z"/>
<path d="M11302 2544 c-18 -9 -39 -29 -47 -44 -35 -68 -141 -473 -199 -760
-56 -278 -69 -387 -63 -535 5 -153 26 -223 87 -300 22 -27 44 -59 49 -71 15
-34 91 -83 160 -104 121 -38 275 -20 401 46 67 35 180 127 180 146 0 5 20 33
46 61 90 103 164 303 149 401 -17 107 -89 166 -210 174 -85 5 -92 0 -106 -87
-25 -161 -92 -300 -159 -334 -33 -16 -36 -16 -47 0 -8 10 -13 48 -13 94 0 140
56 416 171 847 76 284 77 299 32 353 -70 83 -347 156 -431 113z"/>
<path d="M3270 10 c-26 -5 -13 -8 49 -9 46 0 82 1 80 3 -10 8 -97 12 -129 6z"/>
<path d="M6530 9 c-17 -5 -3 -7 44 -8 38 -1 67 1 65 3 -10 8 -86 12 -109 5z"/>
<path d="M10303 3 c9 -2 23 -2 30 0 6 3 -1 5 -18 5 -16 0 -22 -2 -12 -5z"/>
</g>
</svg>
