<?xml version="1.0" standalone="no"?>
<!DOCTYPE svg PUBLIC "-//W3C//DTD SVG 20010904//EN"
 "http://www.w3.org/TR/2001/REC-SVG-20010904/DTD/svg10.dtd">
<svg version="1.0" xmlns="http://www.w3.org/2000/svg"
 width="1280.000000pt" height="1249.000000pt" viewBox="0 0 1280.000000 1249.000000"
 preserveAspectRatio="xMidYMid meet">
<metadata>
Created by potrace 1.15, written by Peter Selinger 2001-2017
</metadata>
<g transform="translate(0.000000,1249.000000) scale(0.100000,-0.100000)"
fill="#000000" stroke="none">
<path d="M10210 12476 c-124 -35 -312 -137 -419 -226 -33 -28 -64 -50 -68 -50
-5 0 -151 -143 -324 -317 -244 -246 -462 -483 -965 -1048 -732 -823 -1799
-2061 -2343 -2720 -221 -267 -375 -445 -393 -454 -47 -23 -127 -111 -155 -171
-14 -30 -30 -66 -37 -79 -6 -13 -41 -56 -79 -94 -55 -58 -70 -82 -85 -132 -18
-57 -54 -103 -517 -660 -805 -968 -2944 -3540 -3262 -3922 -262 -315 -293
-356 -291 -385 1 -28 -91 -178 -591 -962 -517 -812 -590 -931 -577 -944 12
-13 7 -28 -41 -121 -89 -175 -83 -218 25 -167 55 25 66 27 297 35 132 4 438 4
680 0 242 -4 2152 -8 4245 -8 3998 -1 4056 0 4815 44 718 42 1831 132 2165
176 260 34 336 58 299 94 -23 23 -468 85 -834 117 l-150 13 110 6 c61 4 187 7
280 8 364 3 710 32 776 66 63 33 11 74 -124 100 -388 74 -1089 88 -4522 90
-3094 2 -4065 14 -4339 51 -27 4 -43 11 -38 16 12 12 246 45 452 63 206 17
567 33 945 39 237 4 251 3 115 -5 -85 -5 -166 -13 -180 -18 -14 -6 -52 -15
-85 -21 -102 -20 -259 -62 -279 -76 -17 -11 -17 -14 -4 -19 23 -9 251 0 338
13 41 6 154 21 250 32 96 12 267 35 379 51 112 16 218 30 235 31 24 1 21 2
-14 7 -183 26 1389 21 2525 -9 1484 -39 2113 -50 2815 -50 1059 0 1527 32
1447 98 -70 59 -1096 87 -3662 102 -907 5 -1697 12 -1755 15 -58 3 -388 10
-735 15 -625 10 -1066 24 -1220 37 -73 6 -77 7 -40 14 75 14 498 29 1230 44
402 8 1032 22 1400 31 757 18 2628 24 3414 11 414 -7 502 -6 499 5 -8 24 -446
30 -1963 31 -1448 0 -1828 -5 -3360 -43 -1087 -27 -1274 -38 -1318 -78 -17
-15 -17 -17 7 -29 27 -14 370 -36 766 -50 l235 -8 -145 -7 c-168 -8 -516 -63
-440 -69 25 -2 -108 -8 -295 -12 -814 -19 -1375 -59 -1563 -113 -40 -11 -52
-19 -52 -34 0 -26 22 -36 110 -48 287 -40 677 -45 3950 -47 3009 -1 3655 -7
4300 -35 340 -16 634 -50 694 -82 17 -9 17 -11 3 -19 -31 -18 -214 -39 -417
-48 -614 -30 -1394 -21 -2195 24 -1530 85 -3674 145 -5228 145 -530 0 -740 -7
-1027 -35 -417 -42 -642 -104 -518 -144 201 -64 2765 -90 5078 -51 731 12
2438 12 2756 0 252 -9 550 -34 869 -71 239 -27 469 -61 478 -69 22 -19 -397
-72 -913 -115 -936 -77 -1655 -123 -2265 -145 -342 -12 -7427 -13 -8235 -1
-289 4 -617 4 -730 1 -113 -4 -206 -6 -208 -5 -2 2 18 19 43 39 45 33 48 34
71 20 23 -16 27 -12 296 228 1034 923 1362 1212 1374 1214 34 5 112 87 424
449 185 214 730 847 1211 1405 2760 3203 2552 2965 2603 2984 49 19 106 61
106 78 0 23 117 146 178 188 76 51 136 124 151 184 7 28 37 73 95 141 46 55
689 822 1428 1705 1266 1513 1368 1636 1760 2152 229 301 434 573 456 605 152
225 241 493 230 693 -7 112 -34 175 -103 238 -83 76 -191 100 -305 68z m-8605
-10464 c-3 -3 -11 0 -18 7 -9 10 -8 11 6 5 10 -3 15 -9 12 -12z m7330 -972
c2272 -12 3241 -33 3640 -76 54 -6 57 -8 30 -15 -16 -5 -124 -17 -240 -26
-183 -15 -342 -18 -1225 -17 -672 0 -1234 6 -1665 17 -1486 39 -2368 57 -2879
58 -259 1 -353 4 -311 10 33 5 119 19 190 32 l130 22 -90 6 c-49 4 88 5 305 2
217 -2 1169 -8 2115 -13z m-2975 -360 c966 -13 1716 -32 2655 -66 627 -22
1624 -70 1632 -78 2 -2 -432 -6 -964 -9 -533 -3 -1310 -11 -1728 -18 -834 -12
-2776 -6 -3290 11 -537 17 -855 36 -855 50 0 16 261 59 475 79 434 40 914 47
2075 31z"/>
<path d="M6695 1148 c-55 -4 -147 -14 -205 -22 l-105 -13 260 -2 c218 -1 266
2 302 15 24 9 43 21 43 25 0 11 -159 9 -295 -3z"/>
</g>
</svg>
